<?xml version="1.0" encoding="utf-8"?>
<!-- Generator: Adobe Illustrator 19.0.1, SVG Export Plug-In . SVG Version: 6.00 Build 0)  -->
<svg version="1.1" id="Layer_1" xmlns="http://www.w3.org/2000/svg" xmlns:xlink="http://www.w3.org/1999/xlink" x="0px" y="0px"
	 viewBox="0 0 368.9 267.3" style="enable-background:new 0 0 368.9 267.3;" xml:space="preserve">
<style type="text/css">
	.st0{fill:#37BAE3;}
	.st1{fill:#FFFFFF;}
	.st2{fill:none;}
	.st3{font-family:'NirmalaUI-Semilight';}
	.st4{font-size:38.0696px;}
</style>
<g>
	<polygon class="st0" points="12.8,263.6 3.2,263.6 3.2,2.4 63.5,2.4 63.5,192.4 54,192.4 54,10.4 12.8,10.4 	"/>
	<rect x="42.9" y="2.4" class="st0" width="316.2" height="7.4"/>
	<rect x="69.3" y="86" class="st0" width="271.8" height="92"/>
	<path class="st0" d="M341.1,132.5"/>
	<ellipse class="st1" cx="135.4" cy="145.2" rx="34.4" ry="20.6"/>
	<ellipse class="st1" cx="260.2" cy="145.2" rx="34.4" ry="20.6"/>
	<rect x="349.6" y="2.4" class="st0" width="9.5" height="185.1"/>
	<path class="st0" d="M367.7,199.1H43.1c0,0-33.6-48.6,154.4-50.8C385.5,146.2,367.7,199.1,367.7,199.1z"/>
	<polygon class="st0" points="367.5,215.9 42.9,215.1 42.9,205.6 367.6,206.4 	"/>
	<rect x="8" y="86.5" class="st0" width="50.8" height="9.5"/>
	<rect x="8" y="152.1" class="st0" width="50.8" height="9.5"/>
	<rect x="14.5" y="226.6" class="st2" width="354.4" height="74"/>
	<text transform="matrix(1 0 0 1 14.5493 254.7866)" class="st0 st3 st4">Premier Murphy Beds</text>
</g>
</svg>
